<svg width="46" height="50" viewBox="0 0 46 50" xmlns="http://www.w3.org/2000/svg"><path d="M10.764 40.834a.995.995 0 00-1.396 0l-3.74 3.7a.97.97 0 000 1.382.99.99 0 00.697.285.99.99 0 00.698-.286l3.741-3.7a.969.969 0 000-1.381zm-2.615-2.461a.99.99 0 00-1.268-.578l-4.736 1.728a.973.973 0 00-.585 1.254.987.987 0 001.268.579l4.736-1.729a.974.974 0 00.585-1.254zm5.102 5.048a.99.99 0 00-1.267.578l-1.747 4.686a.974.974 0 00.584 1.254.987.987 0 001.268-.578l1.747-4.686a.974.974 0 00-.585-1.254zm23.379-2.587a.995.995 0 00-1.395 0 .97.97 0 000 1.38l3.74 3.702a.99.99 0 00.699.286.99.99 0 00.698-.286.97.97 0 000-1.381l-3.741-3.701zm7.227-1.311l-4.739-1.728a.99.99 0 00-1.268.578.974.974 0 00.585 1.254l4.74 1.729a.987.987 0 001.268-.578.974.974 0 00-.586-1.255zM34.018 44a.99.99 0 00-1.267-.579.974.974 0 00-.585 1.254l1.744 4.686a.987.987 0 001.268.578.974.974 0 00.585-1.253L34.018 44zm.192-6.079a.992.992 0 001.323-.44l.003-.006a.97.97 0 00-.448-1.306.995.995 0 00-1.324.444.972.972 0 00.446 1.308z"/><path d="M32.097 39.34a.994.994 0 00-1.373-.247A17.297 17.297 0 0126.9 41.09c-1.463.54-2.702.79-3.901.79-1.2 0-2.44-.25-3.903-.79-5.902-2.168-11.142-8.343-12.02-13.831a9.869 9.869 0 01-.13-1.567v-5.577c2.37-2.22 4.072-2.977 6.672-3.7 1.369-.38 2.01-.192 3.288.183.318.093.678.2 1.081.303 8.638 2.236 12.09 2.633 18.967 3.424.663.076 1.36.156 2.096.242v5.125c0 2.251-.885 4.87-2.493 7.375a.97.97 0 00.304 1.348.99.99 0 001.362-.3c1.222-1.904 2.072-3.887 2.494-5.782h.66c2.951 0 4.543-2.697 4.543-5.234 0-1.112-.3-2.15-.845-2.92a3.368 3.368 0 00-2.82-1.456h-1.332L40.4 13.94c-.17-1.565-.064-1.729.466-2.244.203-.198.434-.397.677-.607 1.27-1.095 3.007-2.595 3.233-6.269a.972.972 0 00-.357-.811.995.995 0 00-.873-.194c-.528.133-1.013.263-1.44.377-3.14.835-3.886 1.034-6.847-.772C30.417.466 26.077-.56 21.992.285c-3.468.718-5.99 2.625-8.018 4.158l-.475.359c-1.65-.452-3.322-.243-4.76.604-1.724 1.016-2.94 2.877-3.255 4.976-.474 3.134-.508 4.343-.51 8.34H3.745a3.37 3.37 0 00-2.82 1.456c-.546.77-.846 1.808-.846 2.92 0 2.538 1.592 5.234 4.544 5.234h.66c.55 2.453 1.815 5.05 3.653 7.424 2.572 3.32 5.937 5.865 9.473 7.163 1.69.623 3.148.913 4.59.913 1.443 0 2.901-.29 4.589-.912a19.28 19.28 0 004.26-2.222.97.97 0 00.25-1.359zm8.928-13.649v-5.016h1.232c.512 0 .905.204 1.201.623.311.439.49 1.095.49 1.8 0 1.32-.685 3.281-2.57 3.281h-.375c.014-.232.022-.461.022-.688zM7.436 10.669C7.665 9.143 8.53 7.803 9.75 7.084c.758-.447 1.997-.858 3.597-.282a.996.996 0 00.924-.132c.292-.213.589-.438.903-.675 3.871-2.928 9.173-6.938 19.05-.913 3.687 2.25 5.162 1.856 8.395.995h.002c-.41 1.845-1.37 2.673-2.375 3.54-.255.22-.518.448-.764.688-1.19 1.158-1.232 2.104-1.044 3.845l.486 4.435-1.74-.201c-6.786-.78-10.192-1.172-18.695-3.373-.372-.096-.701-.193-1.02-.286-.859-.252-1.605-.471-2.511-.471-.546 0-1.15.08-1.872.28-2.35.654-4.11 1.365-6.135 2.98.013-3.026.083-4.172.486-6.845zM4.623 26.38c-1.886 0-2.57-1.962-2.57-3.28 0-.705.178-1.362.489-1.8.297-.42.69-.624 1.203-.624h1.229v5.016c0 .227.008.456.023.688h-.374z"/><path d="M19.968 38.19h6.066c1.521 0 2.76-1.227 2.76-2.733 0-3.16-2.6-5.732-5.794-5.732-3.195 0-5.794 2.571-5.794 5.732 0 1.506 1.24 2.732 2.762 2.732zM23 31.677c2.106 0 3.82 1.695 3.82 3.779 0 .43-.353.78-.786.78h-6.066a.794.794 0 01-.788-.78c0-2.084 1.714-3.78 3.82-3.78zm9.875-3.087c.356 0 .699-.19.875-.523a.971.971 0 00-.415-1.318l-2.497-1.297 2.497-1.296a.971.971 0 00.415-1.319.992.992 0 00-1.332-.41l-4.162 2.16a.975.975 0 00-.528.865c0 .363.203.696.528.865l4.162 2.161a.99.99 0 00.457.112zm-20.626-.523a.988.988 0 001.333.411l4.164-2.16a.975.975 0 00.528-.866.975.975 0 00-.528-.864l-4.164-2.162a.992.992 0 00-1.333.412.971.971 0 00.416 1.318l2.498 1.296-2.498 1.297a.971.971 0 00-.416 1.318z"/></svg>