<svg width="35" height="50" viewBox="0 0 35 50" xmlns="http://www.w3.org/2000/svg"><g fill="none"><path d="M33.777.568c-.65-.688-1.524-.756-2.28-.178-1.226.937-4.96 3.79-10.736 1.936C16.1.829 12.453.506 9.617 1.338c-2.69.79-4.63 2.653-5.769 5.543C.981 8.796-.317 11.857.093 15.75c.32 3.034 1.606 5.952 2.611 7.528a.747.747 0 001.023.23.729.729 0 00.346-.62h23.883a.73.73 0 00.346.62.744.744 0 001.023-.23c1.07-1.678 2.566-5.74 2.634-9.652 2.221-2.596 2.81-5.692 2.961-7.331.232-2.5-.216-4.749-1.143-5.728z" fill="#3D5868"/><path d="M33.777.568c-.65-.688-1.524-.756-2.28-.178-.187.143-.432.33-.734.539.732 1.107 1.067 3.136.86 5.367-.151 1.64-.74 4.735-2.96 7.33-.064 3.637-1.362 7.403-2.403 9.263h1.697c0 .243.122.481.346.62a.744.744 0 001.022-.23c1.07-1.678 2.566-5.74 2.635-9.652 2.22-2.596 2.809-5.692 2.96-7.331.232-2.5-.216-4.749-1.143-5.728z" fill="#2A434F"/><path d="M21.517 34.76H11.05c-4.517 0-8.192 3.63-8.192 8.092v6.416c0 .404.332.732.741.732h25.368c.41 0 .741-.328.741-.732v-6.416c0-4.462-3.675-8.091-8.192-8.091z" fill="#F0EEEE"/><path d="M21.517 34.76H19.02c4.518 0 8.193 3.63 8.193 8.092v6.416a.737.737 0 01-.742.732h2.497c.41 0 .741-.328.741-.732v-6.416c0-4.462-3.675-8.091-8.192-8.091z" fill="#D9D4D4"/><path fill="#49B6F2" d="M12.122 35.492h8.324V50h-8.324z"/><path d="M16.284 36.219v3.597l4.162 2.86v-7.183zm-4.162 6.457l4.162-2.86V36.22l-4.162-.726z" fill="#68C8FC"/><path d="M24.757 43.286a.737.737 0 01-.741-.732v-3.532c0-4.079-3.36-7.397-7.49-7.397-4.129 0-7.488 3.318-7.488 7.397v3.042a.737.737 0 01-.742.732.737.737 0 01-.741-.732v-3.042c0-4.887 4.025-8.862 8.972-8.862 4.947 0 8.972 3.975 8.972 8.862v3.532a.737.737 0 01-.742.732z" fill="#19303F"/><path d="M12.122 26.146V35c0 2.27 1.863 4.11 4.162 4.11s4.162-1.84 4.162-4.11v-8.854h-8.324zm-8.707-4.271h4.881v5.528h-4.88c-1.546 0-2.8-1.238-2.8-2.764 0-1.527 1.254-2.764 2.8-2.764zm25.738 0h-4.881v5.528h4.88c1.546 0 2.8-1.238 2.8-2.764 0-1.527-1.254-2.764-2.8-2.764z" fill="#FA9E3E"/><path d="M27.368 16.225v6.184c0 6.051-4.92 11.047-11.046 11.067-6.14.02-11.122-4.89-11.122-10.948v-4.277a.22.22 0 01.132-.2c2.682-1.21 3.577-4.35 3.814-6.597.05-.485.07-.928.07-1.301.001-.202.253-.295.389-.145.312.346.798.857 1.433 1.446 2.93 2.718 9.043 7.098 16.033 4.565a.221.221 0 01.297.206z" fill="#FFB56B"/><path d="M16.284 28.173a4.085 4.085 0 01-3.345-1.733.727.727 0 01.187-1.019.747.747 0 011.032.185 2.596 2.596 0 002.126 1.102c.848 0 1.642-.412 2.126-1.102a.747.747 0 011.032-.185c.336.23.42.687.187 1.02a4.086 4.086 0 01-3.345 1.732z" fill="#19303F"/><path d="M25.061 23.667c0 5.232-4.147 9.507-9.372 9.793.098.005.197.01.295.012h.002a11.414 11.414 0 001.133-.027l.043-.003c.168-.013.336-.03.502-.05 5.47-.672 9.704-5.28 9.704-10.864v-6.621c-.78.304-1.55.52-2.307.662v7.098z" fill="#EF9245"/><path d="M21.655 22.75a.737.737 0 01-.742-.732v-.195c0-.404.332-.732.742-.732s.741.328.741.732v.195a.737.737 0 01-.741.733zm-10.742 0a.737.737 0 01-.741-.732v-.195c0-.404.332-.732.741-.732.41 0 .742.328.742.732v.195a.737.737 0 01-.742.733z" fill="#19303F"/><path d="M8.296 41.331c-1.197 0-2.17.962-2.17 2.145 0 1.182.973 2.144 2.17 2.144s2.171-.962 2.171-2.144c0-1.183-.974-2.145-2.17-2.145z" fill="#78D6D1"/><path d="M16.284 39.816l-2.228 1.53a3.098 3.098 0 002.228.94c.876 0 1.666-.361 2.228-.94l-2.228-1.53z" fill="#304A56"/><path d="M16.284 42.285a3.12 3.12 0 01-.928-.14L14.33 50h3.906l-1.025-7.855c-.293.09-.605.14-.928.14zm10.439 5.669h-.36a.73.73 0 01-.382-1.36v-2.099c0-.666-.549-1.209-1.224-1.209-.675 0-1.224.543-1.224 1.21v2.097a.73.73 0 01-.381 1.36h-.36a.737.737 0 01-.742-.732v-2.726c0-1.474 1.215-2.673 2.707-2.673 1.493 0 2.707 1.2 2.707 2.673v2.726a.737.737 0 01-.74.733z" fill="#3D5868"/></g></svg>