<svg width="34" height="60" viewBox="0 0 34 60" xmlns="http://www.w3.org/2000/svg"><g fill="none"><path d="M33.788 22.352c-.48-6.731-7.776-14.897-16.8-14.897C7.965 7.455.706 15.62.226 22.352c-.126 1.729.798 3.183 2.009 3.183h.036s.465 2.779.924 3.776v.005c3.568 4.797 8.565 5.489 13.658 5.489 5.094 0 13.698-4.966 13.958-5.494.465-.997.924-3.776.924-3.776h.042c1.207-.002 2.136-1.454 2.01-3.183z" fill="#322F4C"/><path d="M26.089 32.096a3.64 3.64 0 012.212-3.112 4.286 4.286 0 011.999.088c.178.061.35.142.51.239 1.113.681 1.384 2.077.836 3.526-.62 1.651-2.531 2.908-4.185 2.285h-.006c-1.238-.752-1.472-1.8-1.366-3.026zM8.16 31.923c0 2.42-.907 2.71-1.604 3.199H6.55c-1.66.623-3.565-.633-4.191-2.285-.543-1.45-.276-2.84.835-3.521a2.97 2.97 0 01.517-.244 4.283 4.283 0 011.999-.088c2.45.467 2.36 2.026 2.45 2.94z" fill="#FF7364"/><path d="M5.998 32.654a.49.49 0 01-.4-.206 2.71 2.71 0 00-1.396-1.05.487.487 0 01.236-.945c.796.244 1.486.75 1.957 1.433a.485.485 0 01-.399.768h.002zm22.012 0a.485.485 0 01-.38-.794 3.717 3.717 0 011.943-1.407.487.487 0 11.233.946 2.79 2.79 0 00-1.392 1.047.506.506 0 01-.403.21v-.002z" fill="#ED4850"/><path d="M17.384 53.856c3.902-.663 8.186-2.416 10.044-5.819a25.907 25.907 0 00-3.556-1.869 31.886 31.886 0 00-1.195-.494c-1.05-.41-2.156-.113-2.51-2.31a10.3 10.3 0 01-.084-.82l-.005-.011a9.388 9.388 0 01-3.063.587H17a9.588 9.588 0 01-3.074-.587l-.005.01a9.528 9.528 0 01-.098.883c-.365 2.13-1.461 1.839-2.5 2.248-1.155.448-2.28.967-3.37 1.553a22.758 22.758 0 00-3.199 2.102c1.434 4.975 7.881 5.334 12.63 4.527z" fill="#FF7364"/><path d="M33.29 53.454c1.279 1.683.366 2.722-1.278 3.594-2.789 1.48-9.222 2.945-15.014 2.945-5.793 0-12.228-1.465-15.014-2.945C.34 56.176-.567 55.137.706 53.454a22.175 22.175 0 017.244-6.227c-.778 4.519 11.669 5.604 15.917-1.049l.005-.01a22.692 22.692 0 019.419 7.286z" fill="#F9AF2B"/><path d="M20.093 42.666c-.011-.315 0-1.265 0-1.265h-6.165s0 .856-.008 1.14a6.853 6.853 0 01-.098.883 5.13 5.13 0 003.136.987 5.076 5.076 0 003.21-1.049 6.256 6.256 0 01-.075-.696z" fill="#ED4850"/><path d="M28.35 24.174l.005-.005a4.38 4.38 0 01-.052-.819c0-3.802-5.058-6.884-11.296-6.884-6.239 0-11.296 3.08-11.296 6.884a6.88 6.88 0 01-.053.824 30.042 30.042 0 00.053 4.81c.088 1.142.198 2.27.287 3.183.02.208.041.405.062.587a11.53 11.53 0 007.865 9.779A9.588 9.588 0 0017 43.12h.016a9.388 9.388 0 003.063-.587 11.75 11.75 0 007.378-7.41c.25-.769.415-1.563.496-2.367.02-.187.042-.385.063-.593.089-.913.198-2.035.287-3.178.143-1.6.158-3.208.047-4.81z" fill="#FF977B"/><path d="M33.788 22.352c.125 1.729-.804 3.183-2.01 3.183h-.041c-1.341-.01-2.646-.446-3.382-1.363a2.447 2.447 0 01-.135-.178.476.476 0 00-.775.02c-.379.505-1.182.932-2.884.614a3.51 3.51 0 01-2.648-1.893.467.467 0 00-.77-.122c-.929 1.045-3.13 1.703-4.14 1.695-1.001.008-3.204-.65-4.133-1.695a.469.469 0 00-.77.118 3.508 3.508 0 01-2.648 1.894c-1.699.317-2.504-.108-2.886-.612a.476.476 0 00-.777-.017c-.042.061-.086.12-.132.177-.74.914-2.051 1.35-3.387 1.363h-.037c-1.21 0-2.134-1.454-2.009-3.183.48-6.731 7.74-14.897 16.763-14.897 9.023 0 16.32 8.165 16.8 14.896z" fill="#3C3854"/><path d="M17.662 33.292a.49.49 0 01-.419-.234.47.47 0 00-.426 0 .49.49 0 01-.907-.252c0-.633.898-.773 1.12-.773.223 0 1.121.138 1.121.773a.488.488 0 01-.49.486z" fill="#ED4850"/><path d="M16.586 6.032a.488.488 0 11-.035-.974.918.918 0 00.629-.316.91.91 0 00.218-.666 1.485 1.485 0 00-.409-.76c-.496-.641-1.247-1.612.24-3.057a.491.491 0 01.816.227.486.486 0 01-.132.47c-.864.84-.625 1.15-.146 1.767.353.368.57.846.612 1.353a1.877 1.877 0 01-1.754 1.953l-.039.003zm3.998.126a.488.488 0 11-.034-.974.447.447 0 00.419-.496.992.992 0 00-.242-.415c-.322-.417-.922-1.193.176-2.262a.491.491 0 01.692.007c.19.192.186.5-.007.689-.477.464-.394.572-.084.973.26.276.417.632.444 1.009a1.427 1.427 0 01-1.328 1.466c-.012.003-.023.003-.036.003zm-7.68 0a.488.488 0 11-.034-.974.447.447 0 00.42-.496.995.995 0 00-.243-.414c-.323-.418-.925-1.194.176-2.264a.492.492 0 01.693.008.486.486 0 01-.008.69c-.478.463-.395.57-.085.973.26.275.418.631.446 1.008a1.427 1.427 0 01-1.33 1.466l-.035.003z" fill="#E5395E"/><path d="M9.826 26.81a4.558 4.558 0 003.388-1.038.504.504 0 00.073-.665.511.511 0 00-.68-.151 7.709 7.709 0 01-2.324.967c-.6.097-.768.315-.79.508a.366.366 0 00.333.38z" fill="#332C44"/><rect fill="#3C3854" transform="rotate(-180 12.116 29.378)" x="11.085" y="28.147" width="2.062" height="2.461" rx="1.031"/><path d="M24.259 26.81a4.558 4.558 0 01-3.388-1.038.504.504 0 01-.073-.665.511.511 0 01.679-.151c.715.447 1.5.774 2.323.967.6.097.768.315.79.508a.366.366 0 01-.331.38z" fill="#332C44"/><rect fill="#3C3854" x="20.938" y="28.147" width="2.062" height="2.461" rx="1.031"/><path d="M18.245 36.704a.583.583 0 01-.026-.84l3.827-3.876a.632.632 0 01.884-.07.61.61 0 01.202.452.676.676 0 01-.169.434l-3.914 3.879a.59.59 0 01-.803.02h-.001z" fill="#FFF"/><path d="M10.323 30.152a.428.428 0 01-.417-.33c-.204-.876.513-1.767 1.631-2.024a2.388 2.388 0 011.459.103c.444.172.779.545.9 1.003a.428.428 0 01-.834.192.654.654 0 00-.403-.412 1.543 1.543 0 00-.93-.056c-.63.146-1.082.604-.99 1.003a.426.426 0 01-.416.521zm13.47 0a.428.428 0 01-.419-.522.646.646 0 00-.18-.545 1.64 1.64 0 00-1.738-.4.654.654 0 00-.403.411.428.428 0 01-.834-.192 1.48 1.48 0 01.9-1.003 2.493 2.493 0 012.724.628c.323.348.46.83.365 1.294a.428.428 0 01-.415.33z" fill="#332C44"/><path d="M18.778 37.78a.489.489 0 01-.47-.358c-.081-.293-.462-.65-1.287-.792-.694-.119-1.262.005-1.483.322a.49.49 0 01-.68.123.485.485 0 01-.125-.677c.447-.642 1.363-.913 2.453-.728 1.09.185 1.859.744 2.064 1.494a.485.485 0 01-.472.616z" fill="#ED4850"/></g></svg>