<svg width="50" height="50" viewBox="0 0 50 50" xmlns="http://www.w3.org/2000/svg"><g fill="none"><path d="M50 26.82c0 3.128-2.398 5.69-5.448 5.935a5.855 5.855 0 01-1.693-.104H7.141a5.892 5.892 0 01-1.21.124h-.005C2.652 32.773 0 30.11 0 26.821c0-3.1 2.36-5.646 5.373-5.926a5.975 5.975 0 011.291.018h36.67a5.975 5.975 0 011.767.046A5.946 5.946 0 0150 26.82z" fill="#FFD0A6"/><path d="M45.1 20.959V28.5c0 1.464-.19 2.89-.548 4.254a5.855 5.855 0 01-1.693-.104H7.141a5.892 5.892 0 01-1.21.124h-.005a16.748 16.748 0 01-.553-4.274v-7.606a5.975 5.975 0 011.291.018h36.67a5.975 5.975 0 011.767.046z" fill="#E8B182"/><path d="M46.766 27.769a.765.765 0 01-.702-.463c-.607-1.4-2.33-.973-2.524-.92a.767.767 0 01-.415-1.48c1.1-.312 3.42-.342 4.343 1.788a.77.77 0 01-.702 1.075zm-43.058 0a.77.77 0 01-.701-1.075c.922-2.13 3.244-2.1 4.342-1.787a.769.769 0 01-.415 1.48c-.197-.055-1.917-.48-2.523.92a.766.766 0 01-.703.462z" fill="#D6996B"/><path d="M43.335 18.23v12.374c0 8.856-6.31 16.23-14.66 17.843a18.093 18.093 0 01-3.438.327c-9.995 0-18.096-8.134-18.096-18.17V18.23C7.14 8.194 15.24.06 25.237.06c1.175 0 2.325.11 3.437.326 3.62.699 6.856 2.48 9.36 4.995a18.158 18.158 0 015.3 12.85z" fill="#E8B182"/><path d="M43.334 18.23v12.374c0 8.855-6.308 16.231-14.66 17.843-8.35-1.612-14.66-8.988-14.66-17.843V18.23c0-8.855 6.31-16.232 14.66-17.845 3.62.699 6.855 2.48 9.36 4.995a18.157 18.157 0 015.3 12.85z" fill="#FFD0A6"/><path d="M43.335 18.23v2.683c-21.425-.028-28.547-8.826-28.547-8.826 0 3.655-3.64 7.511-7.647 8.826V18.23C7.14 8.194 15.242.058 25.237.058a18.1 18.1 0 013.437.327c3.62.699 6.855 2.48 9.36 4.995a18.157 18.157 0 015.3 12.85z" fill="#5B5B68"/><path d="M28.674.385c-6.4 1.236-11.599 5.856-13.682 11.932-.139-.147-.205-.23-.205-.23 0 3.655-3.64 7.511-7.647 8.826V18.23C7.14 8.194 15.242.058 25.236.058c1.176 0 2.326.112 3.438.327zM17.353 28.316a.767.767 0 01-.765-.768v-3.442c0-.424.343-.768.765-.768.423 0 .766.344.766.768v3.442a.767.767 0 01-.766.768zm15.768 0a.767.767 0 01-.765-.768v-3.442c0-.424.343-.768.765-.768.423 0 .766.344.766.768v3.442a.767.767 0 01-.766.768z" fill="#40404C"/><path d="M43.335 22.05v2.848L37.84 33.51a.764.764 0 01-1.057.233.772.772 0 01-.232-1.062l6.784-10.631z" fill="#E4E4EF"/><path d="M13.408 33.298a.76.76 0 01-1.057-.233L7.141 24.9v-2.85l6.499 10.187a.77.77 0 01-.232 1.062z" fill="#CACADB"/><path d="M38.801 30.58v7.645l-4.733 8.468a6.332 6.332 0 01-5.525 3.249h-6.611a6.333 6.333 0 01-5.526-3.25l-4.733-8.467v-7.646l5.101-.627 8.464-1.04L38.8 30.58z" fill="#E4E4EF"/><path d="M21.932 49.942a6.333 6.333 0 01-5.526-3.25l-4.733-8.467v-7.646l5.101-.627c0 6.971.92 17.786 5.158 19.99z" fill="#CACADB"/></g></svg>