<svg width="38" height="50" viewBox="0 0 38 50" xmlns="http://www.w3.org/2000/svg"><g fill="none"><path d="M10.873 27.12v3.014c0 4.477 3.639 8.107 8.127 8.107 4.488 0 8.127-3.63 8.127-8.107V27.12H10.873z" fill="#FFBB98"/><path d="M35.17 20.84a6.606 6.606 0 00-4.688-1.939h-.676L25.716 6.67l-.437-1.308c-2.015-6.018-10.543-6.018-12.556 0l-.44 1.308-4.09 12.23H7.67c-3.638 0-6.709 2.857-6.78 6.484a6.594 6.594 0 001.94 4.81 6.613 6.613 0 004.688 1.936H30.33c3.638 0 6.709-2.859 6.78-6.484a6.585 6.585 0 00-1.94-4.807z" fill="#FFBB98"/><path d="M37.11 25.648c-.071 3.625-3.142 6.483-6.78 6.483h-4.108c3.638 0 6.709-2.858 6.78-6.483a6.585 6.585 0 00-1.94-4.808 6.606 6.606 0 00-4.688-1.938h-.676L21.608 6.67l-.437-1.307c-.743-2.217-2.368-3.617-4.225-4.199 3.188-1.004 7.06.396 8.333 4.199l.438 1.307 4.09 12.232h.675c1.832 0 3.488.74 4.688 1.938a6.585 6.585 0 011.94 4.808z" fill="#FFAA80"/><path d="M21.054 1.164c-1.857.582-3.482 1.982-4.223 4.199l-.44 1.307-4.09 12.232h-.523c-3.638 0-6.709 2.856-6.78 6.483a6.594 6.594 0 001.94 4.81 6.613 6.613 0 004.688 1.936H7.518a6.613 6.613 0 01-4.688-1.936 6.594 6.594 0 01-1.94-4.81c.071-3.627 3.142-6.483 6.78-6.483h.524l4.09-12.232.439-1.307C13.994 1.56 17.866.16 21.054 1.164z" fill="#FFCAA6"/><path d="M27.126 27.121v3.012c0 4.478-3.638 8.109-8.126 8.109a8.13 8.13 0 01-1.54-.145c3.752-.72 6.585-4.013 6.585-7.964v-3.012h3.08z" fill="#FFAA80"/><path d="M20.54 38.097a8.13 8.13 0 01-1.54.145c-4.488 0-8.126-3.631-8.126-8.109v-3.012h3.081v3.012c0 3.951 2.833 7.244 6.586 7.964z" fill="#FFCAA6"/><path d="M30.708 35.168l4.046 6.991c1.799 3.107-.45 6.992-4.046 6.992s-5.844-3.884-4.046-6.992l4.046-6.991z" fill="#FFE2E2"/><path d="M35.386 44.484c0 2.432-1.95 4.666-4.679 4.666-.548 0-1.064-.09-1.54-.256 1.892-.65 3.138-2.466 3.138-4.41 0-.777-.197-1.574-.632-2.324l-2.506-4.33 1.54-2.662 4.047 6.992c.435.75.632 1.547.632 2.324z" fill="#FFCFCF"/><path d="M32.248 48.894a4.662 4.662 0 01-1.54.256c-2.728 0-4.678-2.232-4.678-4.666 0-.777.197-1.572.633-2.324l4.044-6.992 1.54 2.662-2.503 4.33a4.608 4.608 0 00-.633 2.324c0 1.945 1.245 3.76 3.137 4.41z" fill="#FFEFEE"/><path d="M7.292 35.168l4.046 6.991c1.798 3.107-.45 6.991-4.046 6.991-3.597 0-5.844-3.884-4.046-6.991l4.046-6.991z" fill="#FFE2E2"/><path d="M11.97 44.484c0 2.432-1.951 4.666-4.679 4.666-.548 0-1.064-.09-1.54-.256 1.891-.65 3.138-2.466 3.138-4.41 0-.777-.197-1.574-.633-2.324l-2.505-4.33 1.54-2.662 4.047 6.992c.435.75.632 1.547.632 2.324z" fill="#FFCFCF"/><path d="M8.832 48.894a4.662 4.662 0 01-1.54.256c-2.729 0-4.678-2.232-4.678-4.666 0-.777.197-1.572.633-2.324l4.044-6.992 1.54 2.662-2.503 4.33a4.608 4.608 0 00-.633 2.324c0 1.945 1.245 3.76 3.137 4.41z" fill="#FFEFEE"/><g fill="#5F266D"><path d="M27.49 32.95h2.84c4.112 0 7.523-3.269 7.602-7.287a7.363 7.363 0 00-2.18-5.403 7.405 7.405 0 00-5.27-2.179H30.4L26.06 5.102C25.027 2.02 22.256.03 19 .03s-6.026 1.992-7.056 5.072l-4.342 12.98C3.52 18.119.147 21.374.068 25.37a7.372 7.372 0 002.182 5.405c2.523 2.517 5.136 2.176 8.261 2.176 1.185 3.547 4.542 6.111 8.49 6.111 3.947 0 7.303-2.565 8.488-6.11zM19 37.422c-4.028 0-7.305-3.27-7.305-7.288V27.12a.82.82 0 00-.822-.82H6.53a.82.82 0 100 1.64h3.523v2.194c0 .399.029.791.08 1.177H7.518a5.776 5.776 0 01-4.106-1.696 5.749 5.749 0 01-1.701-4.214c.062-3.132 2.735-5.68 5.959-5.68h.524a.821.821 0 00.779-.56l4.09-12.23.44-1.31c.974-2.914 3.478-3.953 5.496-3.953H19c2.019 0 4.524 1.039 5.5 3.954l4.527 13.539c.112.334.426.56.78.56h.675a5.77 5.77 0 014.106 1.698 5.738 5.738 0 011.701 4.212c-.062 3.132-2.735 5.68-5.959 5.68h-2.462c.1-.761.08-1.009.08-3.37h3.523a.82.82 0 100-1.64h-4.345a.82.82 0 00-.821.82v3.013c0 4.018-3.277 7.288-7.305 7.288z"/><path d="M14.327 12.572a.821.821 0 00-1.025.546l-.321 1.055a.82.82 0 001.572.476l.321-1.055a.82.82 0 00-.547-1.022zm2.028-6.667a.822.822 0 00-1.025.546l-1.133 3.726a.82.82 0 00.786 1.058.822.822 0 00.786-.582l1.134-3.726a.82.82 0 00-.548-1.022zM31.42 34.758a.823.823 0 00-1.423 0l-4.046 6.991a5.413 5.413 0 000 5.48c2.115 3.655 7.399 3.657 9.515 0a5.414 5.414 0 000-5.48l-4.046-6.991zm2.623 11.652c-1.482 2.561-5.186 2.563-6.67 0a3.795 3.795 0 010-3.84l3.335-5.763 3.335 5.762a3.795 3.795 0 010 3.841zM8.003 34.758a.823.823 0 00-1.423 0l-4.046 6.991a5.413 5.413 0 000 5.48c2.115 3.655 7.4 3.657 9.515 0a5.414 5.414 0 000-5.48l-4.046-6.991zm2.623 11.652c-1.482 2.561-5.186 2.563-6.669 0a3.795 3.795 0 010-3.84l3.335-5.763 3.334 5.762a3.795 3.795 0 010 3.841z"/></g></g></svg>