<svg width="50" height="49" viewBox="0 0 50 49" xmlns="http://www.w3.org/2000/svg"><g fill="none"><ellipse fill="#EFEFD2" cx="19.48" cy="26.239" rx="18.089" ry="17.934"/><path d="M24.325 5.977a11.424 11.424 0 00-9.557 4.399c-.93 1.195-1.538 2.604-1.899 4.07-.23.933-.467 2.078-.467 2.826v29.24H35.21v-28.94c0-6.097-4.742-11.325-10.885-11.595z" fill="#FFCE56"/><path d="M35.21 47.291H12.4a.783.783 0 01-.786-.78v-29.24c0-.68.165-1.693.49-3.01.415-1.687 1.102-3.155 2.04-4.361 2.425-3.12 6.263-4.879 10.214-4.702 6.526.287 11.637 5.722 11.637 12.374v28.94c0 .43-.352.78-.787.78zm-22.022-1.56h21.235v-28.16c0-5.814-4.45-10.565-10.133-10.815a10.686 10.686 0 00-8.9 4.096c-.803 1.033-1.394 2.305-1.757 3.78-.287 1.163-.445 2.1-.445 2.64v28.46z" fill="#4C241D"/><path d="M37.569 48.071H9.256v-6.414c0-2.889 1.677-5.506 4.281-6.68l9.875-4.45 9.875 4.45c2.604 1.174 4.282 3.791 4.282 6.68v6.414z" fill="#A9BA5A"/><path d="M37.569 48.85H9.256a.783.783 0 01-.787-.779v-6.414c0-3.19 1.862-6.091 4.743-7.39l9.875-4.45a.79.79 0 01.65 0l9.876 4.45c2.88 1.299 4.742 4.2 4.742 7.39v6.414c0 .43-.351.78-.786.78zm-27.527-1.559h26.74v-5.634c0-2.58-1.5-4.924-3.82-5.97l-9.55-4.303-9.549 4.303c-2.321 1.046-3.821 3.39-3.821 5.97v5.634z" fill="#4C241D"/><path d="M23.412 35.595c-1.737 0-3.146-1.396-3.146-3.119v-1.56h6.292v1.56c0 1.723-1.408 3.12-3.146 3.12z" fill="#E7D1C4"/><path d="M23.412 36.375c-2.168 0-3.932-1.75-3.932-3.899v-1.56c0-.43.352-.779.786-.779h6.292c.435 0 .787.35.787.78v1.56c0 2.15-1.764 3.898-3.933 3.898zm-2.36-4.678v.78c0 1.29 1.06 2.339 2.36 2.339 1.301 0 2.36-1.05 2.36-2.34v-.78h-4.72z" fill="#4C241D"/><g transform="translate(0 11.387)" fill="#4C241D"><path d="M14.76 37.464a.783.783 0 01-.786-.78v-3.898c0-.431.352-.78.787-.78.435 0 .786.349.786.78v3.898c0 .43-.351.78-.786.78zm16.517 0a.783.783 0 01-.786-.78v-3.898c0-.431.351-.78.786-.78.435 0 .787.349.787.78v3.898c0 .43-.352.78-.787.78z"/><circle cx="23.412" cy="28.887" r="1"/><circle cx="23.412" cy="32.786" r="1"/><path d="M6.503 5.495c-1.518 0-2.753-1.225-2.753-2.73C3.75 1.262 4.985.038 6.503.038S9.256 1.26 9.256 2.766c0 1.504-1.235 2.729-2.753 2.729zm0-3.899c-.65 0-1.18.525-1.18 1.17 0 .645.53 1.17 1.18 1.17.65 0 1.18-.525 1.18-1.17 0-.645-.53-1.17-1.18-1.17z"/><circle cx=".997" cy="6.664" r="1"/></g><path d="M3.831 30.677a3.113 3.113 0 01-1.99-3.945l.995-2.96c.55-1.633 2.331-2.517 3.98-1.972a3.113 3.113 0 011.99 3.946l-.996 2.958c-.55 1.635-2.33 2.518-3.979 1.973z" fill="#E66353"/><path d="M4.83 31.619a3.97 3.97 0 01-1.248-.202 3.895 3.895 0 01-2.273-1.955 3.84 3.84 0 01-.213-2.977l.995-2.959a3.882 3.882 0 011.971-2.254 3.939 3.939 0 013.003-.211 3.894 3.894 0 012.273 1.955 3.84 3.84 0 01.213 2.976l-.995 2.959a3.882 3.882 0 01-1.972 2.254 3.945 3.945 0 01-1.755.414zm.989-9.2c-.362 0-.72.083-1.053.248-.564.28-.984.76-1.184 1.352l-.995 2.96a2.337 2.337 0 001.492 2.959 2.364 2.364 0 001.802-.128c.563-.28.984-.76 1.183-1.352l.995-2.96a2.337 2.337 0 00-1.492-2.959 2.38 2.38 0 00-.748-.12z" fill="#4C241D"/><circle fill="#4C241D" cx="6.423" cy="24.671" r="1"/><path d="M12.94 23.168c.633.423 1.176.393 1.658.232.09.436.21.862.351 1.279h17.666c.148-.42.274-.849.37-1.287.48.167 1.027.197 1.646-.186.501-.31.884-.817.956-1.398a1.947 1.947 0 00-1.14-2.024c-4.743 2.556-16.498-2.375-16.928-6.26l-.075.007c.276 5.706-4.256 6.243-4.256 6.243a1.948 1.948 0 00-1.179 1.857c.023.624.41 1.188.931 1.537z" fill="#E7D1C4"/><path d="M32.615 25.459H14.949a.786.786 0 01-.746-.532 13.076 13.076 0 01-.197-.637h-.038c-.507 0-.992-.158-1.467-.476-.77-.515-1.248-1.32-1.277-2.155a2.714 2.714 0 011.65-2.6.8.8 0 01.221-.06c.15-.02 3.8-.553 3.563-5.43a.782.782 0 01.718-.814c.413-.042.878.263.925.685.127 1.146 1.763 2.665 4.269 3.963 3.619 1.877 8.88 3.11 11.501 1.696a.788.788 0 01.7-.025 2.721 2.721 0 011.597 2.829c-.097.78-.591 1.515-1.322 1.966-.474.293-.962.436-1.48.419-.062.215-.132.431-.21.649a.785.785 0 01-.741.522zm-17.085-1.56h16.513c.067-.228.126-.453.173-.673a.79.79 0 011.03-.57c.358.126.638.094.97-.111.33-.205.551-.516.591-.833a1.17 1.17 0 00-.403-1.04c-3.33 1.447-8.773.079-12.563-1.887-1.645-.852-2.944-1.793-3.822-2.746-.85 3.552-3.88 4.346-4.59 4.483-.403.209-.65.624-.634 1.081.012.333.236.685.585.918.383.256.655.243.967.14a.79.79 0 01.643.063c.195.111.333.3.378.52.045.213.099.432.162.655z" fill="#4C241D"/><circle fill="#4C241D" cx="4.85" cy="27.01" r="1"/><path d="M45.326 36.056a3.165 3.165 0 01-4.432-.378l-2.026-2.386a3.1 3.1 0 01.381-4.395 3.165 3.165 0 014.433.378l2.026 2.386a3.1 3.1 0 01-.382 4.395z" fill="#D9BE6F"/><path d="M43.304 37.567a3.939 3.939 0 01-3.012-1.387l-2.026-2.386a3.88 3.88 0 01.477-5.494 3.96 3.96 0 015.54.473l2.026 2.386a3.88 3.88 0 01-.477 5.494 3.937 3.937 0 01-2.528.914zm-2.03-8.622a2.36 2.36 0 00-1.518.548 2.328 2.328 0 00-.286 3.296l2.025 2.387a2.377 2.377 0 003.325.283 2.328 2.328 0 00.286-3.296l-2.026-2.386a2.365 2.365 0 00-1.807-.832z" fill="#4C241D"/><circle fill="#4C241D" cx="41.514" cy="30.727" r="1"/><circle fill="#4C241D" cx="42.704" cy="33.279" r="1"/><g transform="translate(34.72)"><ellipse fill="#FC8C29" cx="7.563" cy="7.53" rx="6.764" ry="6.706"/><path d="M7.564 15.015H7.56c-4.163 0-7.549-3.36-7.548-7.487 0-2 .786-3.88 2.213-5.293A7.534 7.534 0 017.563.045h.002c4.164 0 7.55 3.359 7.55 7.486-.002 4.128-3.39 7.484-7.551 7.484zM7.563 1.604a5.964 5.964 0 00-4.225 1.734 5.858 5.858 0 00-1.752 4.19c0 3.267 2.68 5.927 5.975 5.928h.003c3.295 0 5.976-2.658 5.977-5.925a5.865 5.865 0 00-1.75-4.19 5.965 5.965 0 00-4.226-1.738h-.002z" fill="#4C241D"/></g><path d="M42.288 9.084a.783.783 0 01-.787-.78V3.627c0-.43.352-.78.787-.78.435 0 .786.35.786.78v4.679c0 .43-.351.78-.786.78z" fill="#4C241D"/><circle fill="#4C241D" cx="42.288" cy="10.644" r="1"/><path d="M27.345 23.12h-6.292c0 .86-.705 1.559-1.573 1.559h-4.53a10.88 10.88 0 007.007 6.868c1.094.349 2.277.316 3.37-.036l.35-.112a10.884 10.884 0 006.938-6.72h-3.697a1.566 1.566 0 01-1.573-1.56z" fill="#FFF"/><path d="M23.56 32.574a6.051 6.051 0 01-1.844-.285 11.719 11.719 0 01-7.513-7.361.775.775 0 01.107-.704.789.789 0 01.64-.325h4.53c.434 0 .786-.35.786-.78 0-.43.352-.78.787-.78h6.292c.434 0 .786.35.786.78 0 .43.353.78.787.78h3.697a.79.79 0 01.642.33.775.775 0 01.1.71c-1.207 3.4-3.988 6.094-7.438 7.202l-.35.112a6.56 6.56 0 01-2.009.321zm-7.45-7.114a10.16 10.16 0 006.09 5.346c.898.286 1.923.273 2.886-.035l.35-.112a10.187 10.187 0 006.002-5.2h-2.52a2.36 2.36 0 01-2.224-1.559h-4.988a2.363 2.363 0 01-2.225 1.56H16.11z" fill="#4C241D"/></g></svg>