<svg width="50" height="49" viewBox="0 0 50 49" xmlns="http://www.w3.org/2000/svg"><g fill="none"><path d="M31.356 23.655a2.538 2.538 0 002.542-2.534 2.53 2.53 0 00-.508-1.521l-2.034-2.703V5.914H4.237V49h20.34v-9.293h6.779V23.655z" fill="#FFCEB6"/><ellipse fill="#91591C" cx="24.576" cy="16.052" rx="1.695" ry="1.69"/><path d="M25.176 31.011l-1.199-1.195a6.602 6.602 0 014.691-1.937h2.688v1.69h-2.688a4.915 4.915 0 00-3.492 1.442z" fill="#FFBFA1"/><path d="M16.102 22.81l-5.085 7.604h-6.78L0 15.207v-2.123C0 5.858 5.876 0 13.124 0h14.842a3.385 3.385 0 013.39 3.38v4.223H18.644v6.76h-3.39a4.23 4.23 0 00-4.237 4.223 4.23 4.23 0 004.237 4.224h.848z" fill="#B1712C"/><path fill="#02C26A" d="M39.464 45.813l-20.876-4.416V37.98l21.024-4.448z"/><ellipse fill="#02C26A" cx="42.373" cy="39.707" rx="6.78" ry="6.759"/><path d="M39.83 42.241a.843.843 0 01-.6-1.442l.849-.845a.85.85 0 011.198 0 .843.843 0 010 1.195l-.847.845a.846.846 0 01-.6.247zm2.543-3.379a.846.846 0 01-.6-.247l-.847-.845a.843.843 0 010-1.195.85.85 0 011.199 0l.847.845a.843.843 0 01-.6 1.442zm-3.389.845a.848.848 0 01-.759-.467l-.49-.978a.843.843 0 01.05-.843.848.848 0 011.466.088l.49.977a.843.843 0 01-.757 1.223zm4.237 2.535a.844.844 0 01-.38-1.6l.992-.495a.849.849 0 011.136.378c.21.417.04.925-.379 1.133l-.99.494a.846.846 0 01-.379.09zm-5.085 3.378a.843.843 0 01-.6-1.442l1.205-1.2a.85.85 0 011.199 0 .843.843 0 010 1.194l-1.205 1.201a.846.846 0 01-.6.248zm5.084-.844h-.847a.846.846 0 01-.848-.845c0-.467.38-.845.848-.845h.847a.846.846 0 110 1.69zm2.543-7.603a.844.844 0 01-.38-1.6l1.696-.846a.85.85 0 01.846.05.844.844 0 01-.088 1.461l-1.695.845a.847.847 0 01-.379.09zm.847 3.379a.846.846 0 01-.6-.248l-.847-.845a.843.843 0 010-1.194.85.85 0 011.199 0l.847.844a.843.843 0 01-.599 1.443zm0 5.068a.848.848 0 01-.758-.466l-.847-1.69a.844.844 0 01.379-1.133.849.849 0 011.137.377l.847 1.69a.843.843 0 01-.757 1.223z" fill="#3CDE8D"/><path fill="#EF5E3B" d="M14.407 32.948l1.732 2.59 3.062-.61-.613 3.052 2.598 1.727-2.598 1.727.613 3.052-3.062-.61-1.732 2.59-1.732-2.59-3.062.61.612-3.052-2.598-1.727 2.598-1.727-.612-3.052 3.062.61z"/><path d="M42.373 47.31c-4.212 0-7.627-3.404-7.627-7.603 0-4.2 3.415-7.604 7.627-7.604S50 35.508 50 39.707c-.005 4.197-3.417 7.599-7.627 7.603zm0-13.517c-3.276 0-5.932 2.648-5.932 5.914 0 3.266 2.656 5.914 5.932 5.914 3.276 0 5.932-2.648 5.932-5.914-.004-3.265-2.657-5.91-5.932-5.914z" fill="#67EBA0"/></g></svg>